<svg width="100" height="100" viewBox="0 0 100 100" fill="none" xmlns="http://www.w3.org/2000/svg">
<path d="M84.0045 19.4887C84.0613 19.0479 84.0908 18.6137 84.0908 18.1818C84.0908 11.916 78.9932 6.81816 72.7272 6.81816C70.2022 6.81816 67.7953 7.66133 65.8295 9.18633C60.6795 3.39316 53.2387 0 45.4545 0C33.8 0 23.4068 7.51367 19.6658 18.4523C11.0703 19.9229 4.54532 27.5068 4.54532 36.3637C4.54532 46.3887 12.7022 54.5455 22.7248 54.5455H31.8156C33.0701 54.5455 34.0883 53.5273 34.0883 52.2729C34.0883 51.0184 33.0705 50 31.8158 50H22.725C15.2045 50 9.08868 43.8842 9.08868 36.3637C9.08868 29.3295 14.5795 23.366 21.5887 22.7863C22.5363 22.709 23.3342 22.05 23.5887 21.134C26.3274 11.3658 35.3205 4.54531 45.4545 4.54531C52.6637 4.54531 59.5203 8.04297 63.7977 13.8998C64.2158 14.4725 64.8795 14.818 65.5885 14.8316C66.2135 14.7953 66.9725 14.5271 67.4135 13.9725C68.7293 12.3133 70.6658 11.3633 72.7272 11.3633C76.4863 11.3633 79.5453 14.4225 79.5453 18.1814C79.5453 18.827 79.4227 19.5156 79.168 20.2883C78.9725 20.8838 79.0316 21.5314 79.3316 22.0814C79.6316 22.6314 80.143 23.0338 80.7498 23.1928C86.7316 24.7678 90.909 30.1836 90.909 36.3633C90.909 43.8838 84.793 49.9996 77.2727 49.9996H68.1818C66.9273 49.9996 65.9092 51.0178 65.9092 52.2723C65.9092 53.5268 66.9273 54.5449 68.1818 54.5449H77.2727C87.2977 54.5449 95.4545 46.3881 95.4545 36.3631C95.4545 28.8658 90.8432 22.2092 84.0045 19.4887Z" fill="#622569"/>
<path d="M40.9068 38.6364C39.6523 38.6364 38.6342 39.6545 38.6342 40.909V70.4545C38.6342 71.7069 37.6137 72.7272 36.3615 72.7272H31.3979C30.457 70.0885 27.957 68.1817 24.9979 68.1817C21.2387 68.1817 18.1797 71.2408 18.1797 74.9998C18.1797 78.7588 21.2389 81.818 24.9979 81.818C27.957 81.818 30.457 79.9112 31.3979 77.2725H36.3637C40.1229 77.2725 43.1818 74.2133 43.1818 70.4543V40.9092C43.1795 39.6545 42.1613 38.6364 40.9068 38.6364ZM25 77.2727C23.7477 77.2727 22.7273 76.2522 22.7273 75C22.7273 73.7479 23.7479 72.7274 25 72.7274C26.2521 72.7274 27.2727 73.7479 27.2727 75C27.2727 76.2522 26.2523 77.2727 25 77.2727Z" fill="#622569"/>
<path d="M52.2727 86.7818V36.3637C52.2727 35.1092 51.2545 34.091 50 34.091C48.7455 34.091 47.7274 35.1092 47.7274 36.3637V86.7818C45.0887 87.7228 43.1819 90.2226 43.1819 93.1818C43.1819 96.9408 46.2408 100 50 100C53.7592 100 56.8182 96.9408 56.8182 93.1818C56.8182 90.2226 54.9137 87.7226 52.2727 86.7818ZM50 95.4545C48.7477 95.4545 47.7274 94.434 47.7274 93.1818C47.7274 91.9297 48.7479 90.9092 50 90.9092C51.2522 90.9092 52.2727 91.9297 52.2727 93.1818C52.2727 94.434 51.2524 95.4545 50 95.4545Z" fill="#622569"/>
<path d="M75 68.1818C72.0408 68.1818 69.5408 70.0887 68.6 72.7274H63.6363C62.384 72.7274 61.3637 71.7068 61.3637 70.4547V40.9092C61.3637 39.6547 60.3455 38.6365 59.091 38.6365C57.8365 38.6365 56.8184 39.6547 56.8184 40.9092V70.4547C56.8184 74.2139 59.8775 77.2729 63.6365 77.2729H68.6002C69.541 79.9115 72.041 81.8184 75.0002 81.8184C78.7594 81.8184 81.8184 78.7592 81.8184 75.0002C81.8184 71.2412 78.7592 68.1818 75 68.1818ZM75 77.2727C73.7477 77.2727 72.7273 76.2522 72.7273 75C72.7273 73.7479 73.7479 72.7274 75 72.7274C76.2521 72.7274 77.2727 73.7479 77.2727 75C77.2727 76.2522 76.2523 77.2727 75 77.2727Z" fill="#622569"/>
</svg>
