<svg width="110" height="110" viewBox="0 0 110 110" fill="none" xmlns="http://www.w3.org/2000/svg">
<g clip-path="url(#clip0_21_19)">
<path d="M84.3333 55C84.3333 50.7566 82.6476 46.6869 79.647 43.6863C76.6465 40.6857 72.5768 39 68.3333 39C61.4 39 55.6667 44.4667 52.4667 54.2C50.0667 61.5334 46.0667 65.6667 41.6667 65.6667C38.8377 65.6667 36.1246 64.5429 34.1242 62.5425C32.1238 60.5421 31 57.829 31 55C31 52.171 32.1238 49.4579 34.1242 47.4575C36.1246 45.4572 38.8377 44.3334 41.6667 44.3334H43.2667L41.1333 46.4667C40.8435 46.7232 40.6163 47.0428 40.4692 47.4009C40.3221 47.7589 40.259 48.1459 40.2847 48.5321C40.3105 48.9184 40.4244 49.2936 40.6177 49.6289C40.811 49.9643 41.0787 50.2509 41.4 50.4667C41.9351 50.854 42.5899 51.0397 43.2487 50.9909C43.9075 50.9421 44.5278 50.662 45 50.2L51.5333 43.5334C51.792 43.296 51.9985 43.0076 52.1398 42.6862C52.281 42.3649 52.354 42.0177 52.354 41.6667C52.354 41.3157 52.281 40.9685 52.1398 40.6471C51.9985 40.3258 51.792 40.0373 51.5333 39.8L45 33.1334C44.5278 32.6714 43.9075 32.3912 43.2487 32.3424C42.5899 32.2936 41.9351 32.4793 41.4 32.8667C41.0787 33.0825 40.811 33.3691 40.6177 33.7044C40.4244 34.0398 40.3105 34.415 40.2847 34.8012C40.259 35.1875 40.3221 35.5745 40.4692 35.9325C40.6163 36.2905 40.8435 36.6101 41.1333 36.8667L43.2667 39H41.6667C37.4232 39 33.3535 40.6857 30.353 43.6863C27.3524 46.6869 25.6667 50.7566 25.6667 55C25.6667 59.2435 27.3524 63.3131 30.353 66.3137C33.3535 69.3143 37.4232 71 41.6667 71C48.6 71 54.3333 65.5334 57.5333 55.8C59.9333 48.4667 63.9333 44.3334 68.3333 44.3334C71.1623 44.3334 73.8754 45.4572 75.8758 47.4575C77.8762 49.4579 79 52.171 79 55C79 57.829 77.8762 60.5421 75.8758 62.5425C73.8754 64.5429 71.1623 65.6667 68.3333 65.6667H66.7333L68.8667 63.5334C69.1565 63.2768 69.3837 62.9572 69.5308 62.5992C69.6779 62.2411 69.741 61.8541 69.7153 61.4679C69.6895 61.0817 69.5756 60.7065 69.3823 60.3711C69.189 60.0358 68.9214 59.7492 68.6 59.5334C68.0649 59.146 67.4101 58.9603 66.7513 59.0091C66.0925 59.0579 65.4722 59.338 65 59.8L58.4667 66.4667C58.208 66.704 58.0015 66.9925 57.8603 67.3138C57.719 67.6351 57.646 67.9823 57.646 68.3334C57.646 68.6844 57.719 69.0316 57.8603 69.3529C58.0015 69.6742 58.208 69.9627 58.4667 70.2L65 76.8667C65.4722 77.3287 66.0925 77.6088 66.7513 77.6576C67.4101 77.7064 68.0649 77.5207 68.6 77.1333C68.9214 76.9175 69.189 76.6309 69.3823 76.2956C69.5756 75.9602 69.6895 75.585 69.7153 75.1988C69.741 74.8126 69.6779 74.4256 69.5308 74.0675C69.3837 73.7095 69.1565 73.3899 68.8667 73.1334L66.7333 71H68.3333C72.5768 71 76.6465 69.3143 79.647 66.3137C82.6476 63.3131 84.3333 59.2435 84.3333 55Z" fill="#622569"/>
</g>
<circle cx="55" cy="55" r="52.5" stroke="#622569" stroke-width="5"/>
<defs>
<clipPath id="clip0_21_19">
<rect width="64" height="64" fill="white" transform="translate(23 23)"/>
</clipPath>
</defs>
</svg>
