<svg width="100" height="100" viewBox="0 0 100 100" fill="none" xmlns="http://www.w3.org/2000/svg">
<path d="M43.6523 42.6172C42.3242 42.6172 41.25 43.6914 41.25 45.0195C41.25 46.3477 42.3242 47.4219 43.6523 47.4219H56.3477C57.6758 47.4219 58.75 46.3477 58.75 45.0195C58.75 43.6914 57.6758 42.6172 56.3477 42.6172H52.4023V39.2383H65.7617C68.8867 39.2383 71.4258 36.6992 71.4258 33.5742V10.9375C71.4258 7.8125 68.8867 5.27344 65.7617 5.27344H34.2383C31.1133 5.27344 28.5742 7.8125 28.5742 10.9375V33.5938C28.5742 36.7188 31.1133 39.2578 34.2383 39.2578H47.5977V42.6367H43.6523V42.6172ZM33.3594 33.5938V10.9375C33.3594 10.4492 33.75 10.0586 34.2383 10.0586H65.7617C66.25 10.0586 66.6406 10.4492 66.6406 10.9375V33.5938C66.6406 34.082 66.25 34.4727 65.7617 34.4727H34.2383C33.75 34.4531 33.3594 34.0625 33.3594 33.5938Z" fill="#622569"/>
<path d="M32.2266 92.3242C32.2266 90.9961 31.1523 89.9219 29.8242 89.9219H25.8789V86.543H39.2578C42.3828 86.543 44.9219 84.0039 44.9219 80.8789V58.2422C44.9219 55.1172 42.3828 52.5781 39.2578 52.5781H7.73437C4.60937 52.5781 2.07031 55.1172 2.07031 58.2422V80.8789C2.07031 84.0039 4.60937 86.543 7.73437 86.543H21.0938V89.9219H17.1484C15.8203 89.9219 14.7461 90.9961 14.7461 92.3242C14.7461 93.6523 15.8203 94.7266 17.1484 94.7266H29.8438C31.1523 94.707 32.2266 93.6523 32.2266 92.3242ZM6.85547 80.8984V58.2422C6.85547 57.7539 7.24609 57.3633 7.73437 57.3633H39.2578C39.7461 57.3633 40.1367 57.7539 40.1367 58.2422V80.8789C40.1367 81.3672 39.7461 81.7578 39.2578 81.7578H7.73437C7.24609 81.7578 6.85547 81.3672 6.85547 80.8984Z" fill="#622569"/>
<path d="M92.2656 86.543C95.3906 86.543 97.9297 84.0039 97.9297 80.8789V58.2422C97.9297 55.1172 95.3906 52.5781 92.2656 52.5781H60.7422C57.6172 52.5781 55.0781 55.1172 55.0781 58.2422V80.8789C55.0781 84.0039 57.6172 86.543 60.7422 86.543H74.1016V89.9219H70.1563C68.8281 89.9219 67.7539 90.9961 67.7539 92.3242C67.7539 93.6523 68.8281 94.7266 70.1563 94.7266H82.8516C84.1797 94.7266 85.2539 93.6523 85.2539 92.3242C85.2539 90.9961 84.1797 89.9219 82.8516 89.9219H78.9062V86.543H92.2656ZM59.8633 80.8984V58.2422C59.8633 57.7539 60.2539 57.3633 60.7422 57.3633H92.2656C92.7539 57.3633 93.1445 57.7539 93.1445 58.2422V80.8789C93.1445 81.3672 92.7539 81.7578 92.2656 81.7578H60.7422C60.2539 81.7578 59.8633 81.3672 59.8633 80.8984Z" fill="#622569"/>
<path d="M9.82422 16.8359C8.49609 16.8359 7.42188 17.9102 7.42188 19.2383V45.0195C7.42188 46.3477 8.49609 47.4219 9.82422 47.4219C11.1523 47.4219 12.2266 46.3477 12.2266 45.0195V21.6211H22.0703C23.3984 21.6211 24.4727 20.5469 24.4727 19.2188C24.4727 17.8906 23.3984 16.8164 22.0703 16.8164H9.82422V16.8359Z" fill="#622569"/>
<path d="M75.5273 19.2383C75.5273 20.5664 76.6016 21.6406 77.9297 21.6406H87.793V45.0391C87.793 46.3672 88.8672 47.4414 90.1953 47.4414C91.5234 47.4414 92.5977 46.3672 92.5977 45.0391V19.2578C92.5977 17.9297 91.5234 16.8555 90.1953 16.8555H77.9297C76.6016 16.836 75.5273 17.9102 75.5273 19.2383Z" fill="#622569"/>
</svg>
